<svg xmlns="http://www.w3.org/2000/svg" width="578" height="385" viewBox="0 0 578 385">
	<g id="illustration-hero" transform="translate(-0.5 -0.5)">
		<g id="Group_8" data-name="Group 8" transform="translate(0.5 0.5)">
			<g id="Group_1" data-name="Group 1">
				<rect id="Rectangle_1" data-name="Rectangle 1" width="578" height="385" rx="26"/>
				<rect id="Rectangle_2" data-name="Rectangle 2" width="578" height="385" rx="26" fill="#777"/>
			</g>
			<rect id="Rectangle_3" data-name="Rectangle 3" width="574.23" height="381.865" rx="25" transform="translate(2 2)" fill="#2a2a2a"/>
			<g id="Group_7" data-name="Group 7" transform="translate(21.03 16.303)">
				<rect id="Rectangle_4" data-name="Rectangle 4" width="471.463" height="353.756" rx="5" transform="translate(33)" fill="#2a2a2a" opacity="0.1"/>
				<rect id="Rectangle_5" data-name="Rectangle 5" width="536" height="346" rx="8" transform="translate(0 3)" fill="#e8eaf6"/>
				<g id="Group_4" data-name="Group 4">
					<path id="Path_1" data-name="Path 1" d="M-3.53,3.2h547v59h-547Z" fill="#5267df" fill-rule="evenodd"/>
					<g id="Group_3" data-name="Group 3" transform="translate(22.47 17.197)">
						<circle id="Ellipse_1" data-name="Ellipse 1" cx="16" cy="16" r="16" fill="#fff" opacity="0.245"/>
						<circle id="Ellipse_2" data-name="Ellipse 2" cx="16" cy="16" r="16" transform="translate(461)" fill="#fff" opacity="0.104"/>
						<g id="Group_2" data-name="Group 2" transform="translate(47 6)">
							<rect id="Rectangle_6" data-name="Rectangle 6" width="120" height="6" rx="3" fill="#fff" opacity="0.75"/>
							<rect id="Rectangle_7" data-name="Rectangle 7" width="64" height="6" rx="3" transform="translate(0 14)" fill="#fff" opacity="0.25"/>
						</g>
					</g>
				</g>
				<g id="Group_6" data-name="Group 6">
					<g id="Group_5" data-name="Group 5" transform="translate(57 96)">
						<rect id="Rectangle_8" data-name="Rectangle 8" width="261" height="253" rx="8" fill="#fff"/>
						<rect id="Rectangle_9" data-name="Rectangle 9" width="128" height="253" rx="8" transform="translate(295)" fill="#fff"/>
						<rect id="Rectangle_10" data-name="Rectangle 10" width="120" height="6" rx="3" transform="translate(78.47 38.197)" fill="#242a45" opacity="0.5"/>
					</g>
				</g>
			</g>
		</g>
		<g id="Group_9" data-name="Group 9" transform="translate(110 135)">
			<circle id="Ellipse_3" data-name="Ellipse 3" cx="16" cy="16" r="16" transform="translate(0 10)" fill="#f98e5d"/>
			<rect id="Rectangle_11" data-name="Rectangle 11" width="88" height="6" rx="3" transform="translate(284)" fill="#242a45" opacity="0.25"/>
			<rect id="Rectangle_12" data-name="Rectangle 12" width="88" height="6" rx="3" transform="translate(284 20)" fill="#242a45" opacity="0.25"/>
			<rect id="Rectangle_13" data-name="Rectangle 13" width="88" height="6" rx="3" transform="translate(284 40)" fill="#242a45" opacity="0.25"/>
			<rect id="Rectangle_14" data-name="Rectangle 14" width="88" height="6" rx="3" transform="translate(284 60)" fill="#242a45" opacity="0.25"/>
			<rect id="Rectangle_15" data-name="Rectangle 15" width="88" height="6" rx="3" transform="translate(284 94)" fill="#242a45" opacity="0.25"/>
			<rect id="Rectangle_16" data-name="Rectangle 16" width="88" height="6" rx="3" transform="translate(284 114)" fill="#242a45" opacity="0.25"/>
			<rect id="Rectangle_17" data-name="Rectangle 17" width="88" height="6" rx="3" transform="translate(284 134)" fill="#242a45" opacity="0.25"/>
			<rect id="Rectangle_18" data-name="Rectangle 18" width="64" height="6" rx="3" transform="translate(47 30)" fill="#242a45" opacity="0.25"/>
		</g>
		<g id="Group_10" data-name="Group 10" transform="translate(110 201)">
			<circle id="Ellipse_4" data-name="Ellipse 4" cx="16" cy="16" r="16" fill="#6ac6d6"/>
			<rect id="Rectangle_19" data-name="Rectangle 19" width="120" height="6" rx="3" transform="translate(47 6)" fill="#242a45" opacity="0.5"/>
			<rect id="Rectangle_20" data-name="Rectangle 20" width="64" height="6" rx="3" transform="translate(47 20)" fill="#242a45" opacity="0.25"/>
		</g>
		<g id="Group_11" data-name="Group 11" transform="translate(110 257)">
			<circle id="Ellipse_5" data-name="Ellipse 5" cx="16" cy="16" r="16" fill="#a47ed4"/>
			<rect id="Rectangle_21" data-name="Rectangle 21" width="120" height="6" rx="3" transform="translate(47 6)" fill="#242a45" opacity="0.5"/>
			<rect id="Rectangle_22" data-name="Rectangle 22" width="64" height="6" rx="3" transform="translate(47 20)" fill="#242a45" opacity="0.25"/>
		</g>
		<g id="Group_12" data-name="Group 12" transform="translate(110 313)">
			<circle id="Ellipse_6" data-name="Ellipse 6" cx="16" cy="16" r="16" fill="#ec7878"/>
			<rect id="Rectangle_23" data-name="Rectangle 23" width="120" height="6" rx="3" transform="translate(47 6)" fill="#242a45" opacity="0.5"/>
			<rect id="Rectangle_24" data-name="Rectangle 24" width="64" height="6" rx="3" transform="translate(47 20)" fill="#242a45" opacity="0.25"/>
		</g>
	</g>
</svg>